<svg xmlns="http://www.w3.org/2000/svg" width="1200" height="800" viewBox="0 0 1200 800"><rect width="1200" height="800" fill="#edf0e3"/><g fill="none" stroke="#d6deca" stroke-width="2"><circle cx="600" cy="390" r="280"/><circle cx="600" cy="390" r="220"/><circle cx="600" cy="390" r="345"/></g><g transform="translate(350 210) rotate(-8 250 200)"><rect x="64" y="-30" width="370" height="330" rx="12" fill="#fffdf2"/><path d="M113 42h135m-135 36h260m-260 35h190" stroke="#d6dfc8" stroke-width="9" stroke-linecap="round"/><rect y="135" width="500" height="310" rx="15" fill="#557553"/><path d="M0 145 250 312 500 145" fill="#76906c"/><path d="M0 445 250 280 500 445" fill="#62815a"/><circle cx="250" cy="295" r="54" fill="#d4b574" stroke="#e0c795" stroke-width="8"/><path d="M233 313c-18-25-1-48 32-51 5 30-2 51-28 47m-10 13 29-46" fill="none" stroke="#927746" stroke-width="4" stroke-linecap="round"/></g><g fill="#c2a269"><path d="m223 187 6 16 16 6-16 6-6 16-6-16-16-6 16-6Z"/><path d="m957 559 5 13 13 5-13 5-5 13-5-13-13-5 13-5Z"/></g></svg>
